<svg viewBox="0 0 168.59 138.13" xmlns="http://www.w3.org/2000/svg"><path d="m20.66 112.39 5.68 21.8a1.78 1.78 0 0 0 2.18 1.27l65.9-17.19a1.78 1.78 0 0 0 1.27-2.17 1.78 1.78 0 0 0 -1.77-1.34c-19.5.7-48.07 11.39-70.51-4.26a1.77 1.77 0 0 0 -2.75 1.89z" fill="#fff"/><rect fill="#fff" height="97.38" rx="1.3" transform="matrix(-.96762112 .25240714 -.25240714 -.96762112 116.89 144.51)" width="71.67" x="13.34" y="31.06"/><circle cx="44.77" cy="108.88" fill="#fff" r="1.65"/><circle cx="36.56" cy="114.13" fill="#fff" r="4.66"/><path d="m20.66 112.39 5.68 21.8a1.78 1.78 0 0 0 2.18 1.27l65.9-17.19a1.78 1.78 0 0 0 1.27-2.17 1.78 1.78 0 0 0 -1.77-1.34c-19.5.7-48.07 11.39-70.51-4.26a1.77 1.77 0 0 0 -2.75 1.89z" fill="#dbcec8"/><rect fill="none" height="97.38" rx="1.3" stroke="#3e3127" stroke-miterlimit="10" stroke-width="5" transform="matrix(-.96762112 .25240714 -.25240714 -.96762112 116.89 144.51)" width="71.67" x="13.34" y="31.06"/><circle cx="44.84" cy="108.77" fill="#dbcec8" r="1.56"/><circle cx="37.1" cy="113.72" fill="#dbcec8" r="4.39"/><path d="m63.8 44.4-39.06 10.12" fill="none" stroke="#3e3127" stroke-miterlimit="10" stroke-width="3"/><path d="m66.29 52.25-17.94 4.31" fill="none" opacity=".5" stroke="#3e3127" stroke-miterlimit="10" stroke-width="3"/><path d="m92.01 71.11 5.1.46" fill="none" stroke="#fff" stroke-linecap="round" stroke-miterlimit="10" stroke-width="3"/><path d="m152.81 110.67v-95.23h-92.66v116.86h71.54z" fill="#fff"/><path d="m145.22 131.77h21.37v-117.04h-4.62" fill="none" stroke="#3e3127" stroke-miterlimit="10" stroke-width="4"/><path d="m151.64 13.69v95.23l-21.13 21.63h-13.12l26.5-26.5v-90.36z" fill="#dbcec8"/><circle cx="143.13" cy="40.87" fill="#dbcec8" r="5.18"/><circle cx="133.89" cy="36.54" fill="#dbcec8" r="2.31"/><g fill="none" stroke-miterlimit="10"><path d="m153.2 109.89v-95.23h-92.66v116.86h71.53z" stroke="#3e3127" stroke-width="5"/><path d="m73.78 14.27v-1.85a10.42 10.42 0 0 1 10.42-10.42 10.41 10.41 0 0 1 10.42 10.42v24.83a9.35 9.35 0 0 1 -9.35 9.35 9.35 9.35 0 0 1 -9.35-9.35v-6.82" stroke="#3e3127" stroke-width="4"/><path d="m77.48 63.23h48.69" stroke="#3e3127" stroke-width="4"/><path d="m77.48 73.25h23.69" stroke="#3e3127" stroke-width="4"/><path d="m77.48 83.16h40.69" stroke="#3e3127" stroke-width="4"/></g></svg>